<?xml version="1.0" standalone="no"?>
<!DOCTYPE svg PUBLIC "-//W3C//DTD SVG 20010904//EN"
 "http://www.w3.org/TR/2001/REC-SVG-20010904/DTD/svg10.dtd">
<svg version="1.0" xmlns="http://www.w3.org/2000/svg"
 width="120.000000pt" height="160.000000pt" viewBox="0 0 120.000000 160.000000"
 preserveAspectRatio="xMidYMid meet">

<g transform="translate(0.000000,160.000000) scale(0.100000,-0.100000)"
fill="#000000" stroke="none">
<path d="M200 1300 l0 -200 100 0 100 0 0 -50 0 -50 100 0 100 0 0 50 0 50 50
0 50 0 0 -50 0 -50 100 0 100 0 0 -100 0 -100 -300 0 -300 0 0 100 0 100 -50
0 -50 0 0 -200 0 -200 -50 0 -50 0 0 -150 0 -150 50 0 50 0 0 -50 0 -50 50 0
50 0 0 -50 0 -50 100 0 100 0 0 50 0 50 100 0 100 0 0 -50 0 -50 100 0 100 0
0 50 0 50 50 0 50 0 0 50 0 50 50 0 50 0 0 150 0 150 -50 0 -50 0 0 200 0 200
-50 0 -50 0 0 50 0 50 50 0 50 0 0 200 0 200 -200 0 -200 0 0 -50 0 -50 -50 0
-50 0 0 50 0 50 -150 0 -150 0 0 -200z m300 50 l0 -50 100 0 100 0 0 50 0 50
100 0 100 0 0 -100 0 -100 -50 0 -50 0 0 -50 0 -50 -50 0 -50 0 0 50 0 50 -50
0 -50 0 0 -50 0 -50 -100 0 -100 0 0 50 0 50 -50 0 -50 0 0 100 0 100 100 0
100 0 0 -50z m400 -700 l0 -50 -50 0 -50 0 0 -150 0 -150 -200 0 -200 0 0 150
0 150 -50 0 -50 0 0 50 0 50 300 0 300 0 0 -50z m-600 -200 l0 -50 -50 0 -50
0 0 50 0 50 50 0 50 0 0 -50z m700 0 l0 -50 -50 0 -50 0 0 50 0 50 50 0 50 0
0 -50z"/>
</g>
</svg>
